<svg xmlns="http://www.w3.org/2000/svg" width="284.42266845703125" height="286.457763671875" viewBox="-53.58519744873047 -40.54129409790039 284.42266845703125 286.457763671875"><title>Neo4j Graph Visualization</title><desc>Created using Neo4j (http://www.neo4j.com/)</desc><g class="layer relationships"><g class="relationship" transform="translate(134.22573090944852 216.91649273242075) rotate(247.75034569224584)"><path class="outline" fill="#A5ABB6" stroke="none" d="M 25 0.5 L 33.28399170923634 0.5 L 33.28399170923634 -0.5 L 25 -0.5 Z M 80.17461670923635 0.5 L 88.45860841847268 0.5 L 88.45860841847268 3.5 L 95.45860841847268 0 L 88.45860841847268 -3.5 L 88.45860841847268 -0.5 L 80.17461670923635 -0.5 Z"/><text text-anchor="middle" pointer-events="none" font-size="8px" fill="#000000" x="56.72930420923634" y="3" transform="rotate(180 56.72930420923634 0)" font-family="sans-serif">DIRECTED</text></g><g class="relationship" transform="translate(200.91606069183138 150.4734088115032) rotate(201.8568303899151)"><path class="outline" fill="#A5ABB6" stroke="none" d="M 25 0.5 L 34.218202310777244 0.5 L 34.218202310777244 -0.5 L 25 -0.5 Z M 79.78070231077724 0.5 L 88.99890462155449 0.5 L 88.99890462155449 3.5 L 95.99890462155449 0 L 88.99890462155449 -3.5 L 88.99890462155449 -0.5 L 79.78070231077724 -0.5 Z"/><text text-anchor="middle" pointer-events="none" font-size="8px" fill="#000000" x="56.999452310777244" y="3" transform="rotate(180 56.999452310777244 0)" font-family="sans-serif">ACTED_IN</text></g><g class="relationship" transform="translate(201.83744174781762 63.894209302643965) rotate(519.8557739328029)"><path class="outline" fill="#A5ABB6" stroke="none" d="M 25 0.5 L 34.01863384904401 0.5 L 34.01863384904401 -0.5 L 25 -0.5 Z M 79.58113384904401 0.5 L 88.59976769808802 0.5 L 88.59976769808802 3.5 L 95.59976769808802 0 L 88.59976769808802 -3.5 L 88.59976769808802 -0.5 L 79.58113384904401 -0.5 Z"/><text text-anchor="middle" pointer-events="none" font-size="8px" fill="#000000" x="56.79988384904401" y="3" transform="rotate(180 56.79988384904401 0)" font-family="sans-serif">ACTED_IN</text></g><g class="relationship" transform="translate(147.78382538776046 0.6349541084194532) rotate(479.45047269716406)"><path class="outline" fill="#A5ABB6" stroke="none" d="M 25 0.5 L 33.88998640602829 0.5 L 33.88998640602829 -0.5 L 25 -0.5 Z M 79.4524864060283 0.5 L 88.34247281205658 0.5 L 88.34247281205658 3.5 L 95.34247281205658 0 L 88.34247281205658 -3.5 L 88.34247281205658 -0.5 L 79.4524864060283 -0.5 Z"/><text text-anchor="middle" pointer-events="none" font-size="8px" fill="#000000" x="56.67123640602829" y="3" transform="rotate(180 56.67123640602829 0)" font-family="sans-serif">ACTED_IN</text></g><g class="relationship" transform="translate(61.33719883426687 -11.541295391073387) rotate(436.8728805524556)"><path class="outline" fill="#A5ABB6" stroke="none" d="M 25 0.5 L 33.77212595478568 0.5 L 33.77212595478568 -0.5 L 25 -0.5 Z M 79.33462595478568 0.5 L 88.10675190957136 0.5 L 88.10675190957136 3.5 L 95.10675190957136 0 L 88.10675190957136 -3.5 L 88.10675190957136 -0.5 L 79.33462595478568 -0.5 Z"/><text text-anchor="middle" pointer-events="none" font-size="8px" fill="#000000" x="56.55337595478568" y="3" font-family="sans-serif">ACTED_IN</text></g><g class="relationship" transform="translate(-17.322800415436735 44.61605376144755) rotate(389.8568784658407)"><path class="outline" fill="#A5ABB6" stroke="none" d="M 25 0.5 L 34.79402890895206 0.5 L 34.79402890895206 -0.5 L 25 -0.5 Z M 80.35652890895206 0.5 L 90.15055781790412 0.5 L 90.15055781790412 3.5 L 97.15055781790412 0 L 90.15055781790412 -3.5 L 90.15055781790412 -0.5 L 80.35652890895206 -0.5 Z"/><text text-anchor="middle" pointer-events="none" font-size="8px" fill="#000000" x="57.57527890895206" y="3" font-family="sans-serif">ACTED_IN</text></g><g class="relationship" transform="translate(-24.585197487895666 142.34780358194095) rotate(341.9359477335138)"><path class="outline" fill="#A5ABB6" stroke="none" d="M 25 0.5 L 38.14776610129495 0.5 L 38.14776610129495 -0.5 L 25 -0.5 Z M 73.92120360129495 0.5 L 87.0689697025899 0.5 L 87.0689697025899 3.5 L 94.0689697025899 0 L 87.0689697025899 -3.5 L 87.0689697025899 -0.5 L 73.92120360129495 -0.5 Z"/><text text-anchor="middle" pointer-events="none" font-size="8px" fill="#000000" x="56.03448485129495" y="3" font-family="sans-serif">WROTE</text></g><g class="relationship" transform="translate(38.497349858933525 213.96429238293402) rotate(294.7853167720805)"><path class="outline" fill="#A5ABB6" stroke="none" d="M 25 0.5 L 38.388144216074785 0.5 L 38.388144216074785 -0.5 L 25 -0.5 Z M 74.16158171607478 0.5 L 87.54972593214957 0.5 L 87.54972593214957 3.5 L 94.54972593214957 0 L 87.54972593214957 -3.5 L 87.54972593214957 -0.5 L 74.16158171607478 -0.5 Z"/><text text-anchor="middle" pointer-events="none" font-size="8px" fill="#000000" x="56.274862966074785" y="3" font-family="sans-serif">WROTE</text></g></g><g class="layer nodes"><g class="node" transform="translate(134.22573090944852,216.91649273242075)"><circle class="outline" cx="0" cy="0" r="25" fill="#F79767" stroke="#f36924" stroke-width="2px"/><text text-anchor="middle" pointer-events="none" font-family="sans-serif" dy="1.5625" font-size="25" fill="#FFFFFF"/><text text-anchor="middle" pointer-events="none" font-family="sans-serif" dy="1.5625" font-size="25" fill="#FFFFFF"/><text text-anchor="middle" pointer-events="none" x="0" y="0" font-size="10px" fill="#FFFFFF" font-family="sans-serif"> Joe</text><text text-anchor="middle" pointer-events="none" x="0" y="10" font-size="10px" fill="#FFFFFF" font-family="sans-serif"> Johnston</text></g><g class="node" transform="translate(88.61491805166493,105.42689639012887)"><circle class="outline" cx="0" cy="0" r="25" fill="#57C7E3" stroke="#23b3d7" stroke-width="2px"/><text text-anchor="middle" pointer-events="none" font-family="sans-serif" dy="1.5625" font-size="25" fill="#2A2C34"/><text text-anchor="middle" pointer-events="none" font-family="sans-serif" dy="1.5625" font-size="25" fill="#2A2C34"/><text text-anchor="middle" pointer-events="none" font-family="sans-serif" dy="1.5625" font-size="25" fill="#2A2C34"/><text text-anchor="middle" pointer-events="none" x="0" y="-5" font-size="10px" fill="#2A2C34" font-family="sans-serif"> Captain</text><text text-anchor="middle" pointer-events="none" x="0" y="5" font-size="10px" fill="#2A2C34" font-family="sans-serif"> America:</text><text text-anchor="middle" pointer-events="none" x="0" y="15" font-size="10px" fill="#2A2C34" font-family="sans-serif"> The Fi…</text></g><g class="node" transform="translate(200.91606069183138,150.4734088115032)"><circle class="outline" cx="0" cy="0" r="25" fill="#F79767" stroke="#f36924" stroke-width="2px"/><text text-anchor="middle" pointer-events="none" font-family="sans-serif" dy="1.5625" font-size="25" fill="#FFFFFF"/><text text-anchor="middle" pointer-events="none" x="0" y="5" font-size="10px" fill="#FFFFFF" font-family="sans-serif"> Sebastian</text></g><g class="node" transform="translate(201.83744174781762,63.894209302643965)"><circle class="outline" cx="0" cy="0" r="25" fill="#F79767" stroke="#f36924" stroke-width="2px"/><text text-anchor="middle" pointer-events="none" font-family="sans-serif" dy="1.5625" font-size="25" fill="#FFFFFF"/><text text-anchor="middle" pointer-events="none" font-family="sans-serif" dy="1.5625" font-size="25" fill="#FFFFFF"/><text text-anchor="middle" pointer-events="none" x="0" y="0" font-size="10px" fill="#FFFFFF" font-family="sans-serif"> Tommy</text><text text-anchor="middle" pointer-events="none" x="0" y="10" font-size="10px" fill="#FFFFFF" font-family="sans-serif"> Lee Jon…</text></g><g class="node" transform="translate(147.78382538776046,0.6349541084194532)"><circle class="outline" cx="0" cy="0" r="25" fill="#F79767" stroke="#f36924" stroke-width="2px"/><text text-anchor="middle" pointer-events="none" font-family="sans-serif" dy="1.5625" font-size="25" fill="#FFFFFF"/><text text-anchor="middle" pointer-events="none" font-family="sans-serif" dy="1.5625" font-size="25" fill="#FFFFFF"/><text text-anchor="middle" pointer-events="none" x="0" y="0" font-size="10px" fill="#FFFFFF" font-family="sans-serif"> Hayley</text><text text-anchor="middle" pointer-events="none" x="0" y="10" font-size="10px" fill="#FFFFFF" font-family="sans-serif"> Atwell</text></g><g class="node" transform="translate(61.33719883426687,-11.541295391073387)"><circle class="outline" cx="0" cy="0" r="25" fill="#F79767" stroke="#f36924" stroke-width="2px"/><text text-anchor="middle" pointer-events="none" font-family="sans-serif" dy="1.5625" font-size="25" fill="#FFFFFF"/><text text-anchor="middle" pointer-events="none" font-family="sans-serif" dy="1.5625" font-size="25" fill="#FFFFFF"/><text text-anchor="middle" pointer-events="none" x="0" y="0" font-size="10px" fill="#FFFFFF" font-family="sans-serif"> Chris</text><text text-anchor="middle" pointer-events="none" x="0" y="10" font-size="10px" fill="#FFFFFF" font-family="sans-serif"> Evans</text></g><g class="node" transform="translate(-17.322800415436735,44.61605376144755)"><circle class="outline" cx="0" cy="0" r="25" fill="#A5ABB6" stroke="#9AA1AC" stroke-width="2px"/><text text-anchor="middle" pointer-events="none" font-family="sans-serif" dy="1.5625" font-size="25" fill="#FFFFFF"/><text text-anchor="middle" pointer-events="none" x="0" y="5" font-size="10px" fill="#FFFFFF" font-family="sans-serif"> </text></g><g class="node" transform="translate(-24.585197487895666,142.34780358194095)"><circle class="outline" cx="0" cy="0" r="25" fill="#F79767" stroke="#f36924" stroke-width="2px"/><text text-anchor="middle" pointer-events="none" font-family="sans-serif" dy="1.5625" font-size="25" fill="#FFFFFF"/><text text-anchor="middle" pointer-events="none" x="0" y="5" font-size="10px" fill="#FFFFFF" font-family="sans-serif"> Christop…</text></g><g class="node" transform="translate(38.497349858933525,213.96429238293402)"><circle class="outline" cx="0" cy="0" r="25" fill="#F79767" stroke="#f36924" stroke-width="2px"/><text text-anchor="middle" pointer-events="none" font-family="sans-serif" dy="1.5625" font-size="25" fill="#FFFFFF"/><text text-anchor="middle" pointer-events="none" font-family="sans-serif" dy="1.5625" font-size="25" fill="#FFFFFF"/><text text-anchor="middle" pointer-events="none" x="0" y="0" font-size="10px" fill="#FFFFFF" font-family="sans-serif"> Stephen</text><text text-anchor="middle" pointer-events="none" x="0" y="10" font-size="10px" fill="#FFFFFF" font-family="sans-serif"> McFeely</text></g></g></svg>