<svg xmlns="http://www.w3.org/2000/svg" width="163.51844787597656" height="242.5616455078125" viewBox="-0.3474292755126953 -20.13928985595703 163.51844787597656 242.5616455078125"><title>Neo4j Graph Visualization</title><desc>Created using Neo4j (http://www.neo4j.com/)</desc><g class="layer relationships"><g class="relationship" transform="translate(134.17102616122395 8.860709439525849) rotate(520.8748820958319)"><path class="outline" fill="#A5ABB6" stroke="none" d="M 21.40063509461097,12.933012701892217 L 21.90063509461097,12.06698729810778 A 59.925268975785166 59.925268975785166 0 0 0 40.49728398106789,19.007689063257395 L 40.30761465132272,19.9895370888469 A 60.925268975785166 60.925268975785166 0 0 1 21.40063509461097,12.933012701892217 Z M 59.711252866192225,20.58787446302489 L 59.58243959354491,19.596205596522623 A 59.925268975785166 59.925268975785166 0 0 0 78.57140087163651,13.814506851512773 L 77.23432896129138,11.128945698500981 L 85.06055554705488,11.142265919542766 L 80.35416341876335,17.395255055528494 L 79.01709150841822,14.709693902516703 A 60.925268975785166 60.925268975785166 0 0 1 59.711252866192225,20.58787446302489"/><text text-anchor="middle" pointer-events="none" font-size="8px" fill="#000000" x="50.000860109370564" y="23.56674288019225" transform="rotate(180 50.000860109370564 20.56674288019225)" font-family="sans-serif">trek</text></g><g class="relationship" transform="translate(32.66091793854954 44.06158077276051) rotate(452.1527130752911)"><path class="outline" fill="#A5ABB6" stroke="none" d="M 25 0.5 L 40.186887022193865 0.5 L 40.186887022193865 -0.5 L 25 -0.5 Z M 59.522824522193865 0.5 L 74.70971154438773 0.5 L 74.70971154438773 3.5 L 81.70971154438773 0 L 74.70971154438773 -3.5 L 74.70971154438773 -0.5 L 59.522824522193865 -0.5 Z"/><text text-anchor="middle" pointer-events="none" font-size="8px" fill="#000000" x="49.854855772193865" y="3" transform="rotate(180 49.854855772193865 0)" font-family="sans-serif">trek</text></g><g class="relationship" transform="translate(28.652571236928875 150.695982794838) rotate(383.4361057107708)"><path class="outline" fill="#A5ABB6" stroke="none" d="M 25 0.5 L 40.5453563640123 0.5 L 40.5453563640123 -0.5 L 25 -0.5 Z M 59.8812938640123 0.5 L 75.4266502280246 0.5 L 75.4266502280246 3.5 L 82.4266502280246 0 L 75.4266502280246 -3.5 L 75.4266502280246 -0.5 L 59.8812938640123 -0.5 Z"/><text text-anchor="middle" pointer-events="none" font-size="8px" fill="#000000" x="50.2133251140123" y="3" font-family="sans-serif">trek</text></g><g class="relationship" transform="translate(134.17102616122395 8.860709439525849) rotate(520.8748820958319)"><path class="outline" fill="#A5ABB6" stroke="none" d="M 25 0.5 L 39.214256536076576 0.5 L 39.214256536076576 -0.5 L 25 -0.5 Z M 61.225975286076576 0.5 L 75.44023182215315 0.5 L 75.44023182215315 3.5 L 82.44023182215315 0 L 75.44023182215315 -3.5 L 75.44023182215315 -0.5 L 61.225975286076576 -0.5 Z"/><text text-anchor="middle" pointer-events="none" font-size="8px" fill="#000000" x="50.220115911076576" y="3" transform="rotate(180 50.220115911076576 0)" font-family="sans-serif">road</text></g><g class="relationship" transform="translate(134.17102616122395 8.860709439525849) rotate(520.8748820958319)"><path class="outline" fill="#A5ABB6" stroke="none" d="M 21.40063509461097,-12.933012701892217 L 21.90063509461097,-12.06698729810778 A 59.925268975785166 59.925268975785166 0 0 1 23.46417792449424,-12.938822864327015 L 22.990269469123188,-13.819396981552714 A 60.925268975785166 60.925268975785166 0 0 0 21.40063509461097,-12.933012701892217 Z M 77.37586358645004,-15.496450182448498 L 76.95711132761166,-14.588349667242312 A 59.925268975785166 59.925268975785166 0 0 1 78.57140087163651,-13.814506851512773 L 77.23432896129138,-11.128945698500981 L 85.06055554705488,-11.142265919542766 L 80.35416341876335,-17.395255055528494 L 79.01709150841822,-14.709693902516703 A 60.925268975785166 60.925268975785166 0 0 0 77.37586358645004,-15.496450182448498"/><text text-anchor="middle" pointer-events="none" font-size="8px" fill="#000000" x="50.000860109370564" y="-17.56674288019225" transform="rotate(180 50.000860109370564 -20.56674288019225)" font-family="sans-serif">PublicTrans…</text></g></g><g class="layer nodes"><g class="node" transform="translate(134.17102616122395,8.860709439525849)"><circle class="outline" cx="0" cy="0" r="25" fill="#F16667" stroke="#eb2728" stroke-width="2px"/><text text-anchor="middle" pointer-events="none" font-family="sans-serif" dy="1.5625" font-size="25" fill="#FFFFFF"/><text text-anchor="middle" pointer-events="none" x="0" y="5" font-size="10px" fill="#FFFFFF" font-family="sans-serif"> Darjeeling</text></g><g class="node" transform="translate(127.21697136610156,193.42237050068883)"><circle class="outline" cx="0" cy="0" r="25" fill="#8DCC93" stroke="#5db665" stroke-width="2px"/><text text-anchor="middle" pointer-events="none" font-family="sans-serif" dy="1.5625" font-size="25" fill="#2A2C34"/><text text-anchor="middle" pointer-events="none" x="0" y="5" font-size="10px" fill="#2A2C34" font-family="sans-serif"> Sandak…</text></g><g class="node" transform="translate(32.66091793854954,44.06158077276051)"><circle class="outline" cx="0" cy="0" r="25" fill="#F16667" stroke="#eb2728" stroke-width="2px"/><text text-anchor="middle" pointer-events="none" font-family="sans-serif" dy="1.5625" font-size="25" fill="#FFFFFF"/><text text-anchor="middle" pointer-events="none" x="0" y="5" font-size="10px" fill="#FFFFFF" font-family="sans-serif"> Rimbik</text></g><g class="node" transform="translate(28.652571236928875,150.695982794838)"><circle class="outline" cx="0" cy="0" r="25" fill="#D9C8AE" stroke="#c0a378" stroke-width="2px"/><text text-anchor="middle" pointer-events="none" font-family="sans-serif" dy="1.5625" font-size="25" fill="#2A2C34"/><text text-anchor="middle" pointer-events="none" x="0" y="5" font-size="10px" fill="#2A2C34" font-family="sans-serif"> BhikeBh…</text></g></g></svg>